<svg width="22" height="18" viewBox="0 0 22 18" fill="none" xmlns="http://www.w3.org/2000/svg">
<path fill-rule="evenodd" clip-rule="evenodd" d="M12.2059 17.1277C12.1189 17.041 12.05 16.938 12.0029 16.8246C11.9559 16.7112 11.9317 16.5896 11.9317 16.4669C11.9317 16.3441 11.9559 16.2225 12.0029 16.1091C12.05 15.9957 12.1189 15.8928 12.2059 15.8061L18.0803 9.93352L1.66667 9.93352C1.41913 9.93352 1.18173 9.83519 1.0067 9.66015C0.831667 9.48512 0.733334 9.24772 0.733334 9.00019C0.733334 8.75265 0.831667 8.51525 1.0067 8.34022C1.18173 8.16519 1.41913 8.06685 1.66667 8.06685L18.0803 8.06685L12.2059 2.19432C12.0306 2.01907 11.9322 1.78137 11.9322 1.53352C11.9322 1.28567 12.0306 1.04798 12.2059 0.872721C12.3811 0.697466 12.6188 0.599009 12.8667 0.599009C13.1145 0.599009 13.3522 0.697466 13.5275 0.872721L20.9941 8.33939C21.0811 8.42609 21.15 8.52908 21.1971 8.64247C21.2441 8.75586 21.2683 8.87742 21.2683 9.00019C21.2683 9.12295 21.2441 9.24451 21.1971 9.3579C21.15 9.47129 21.0811 9.57429 20.9941 9.66099L13.5275 17.1277C13.4408 17.2146 13.3378 17.2835 13.2244 17.3306C13.111 17.3776 12.9894 17.4019 12.8667 17.4019C12.7439 17.4019 12.6223 17.3776 12.509 17.3306C12.3956 17.2835 12.2926 17.2146 12.2059 17.1277Z" fill="#D8D8D8"/>
</svg>